<svg xmlns="http://www.w3.org/2000/svg"  viewBox="0 0 64 64" width="512px" height="512px"><radialGradient id="b_EoP36c3le5xGIwehhO9a" cx="33.042" cy="33.085" r="36.142" gradientTransform="matrix(1 0 0 -1 0 66)" gradientUnits="userSpaceOnUse"><stop offset="0" stop-color="#afeeff"/><stop offset=".193" stop-color="#bbf1ff"/><stop offset=".703" stop-color="#d7f8ff"/><stop offset="1" stop-color="#e1faff"/></radialGradient><path fill="url(#b_EoP36c3le5xGIwehhO9a)" d="M62.98,58.41C62.77,60.49,60.9,62,58.81,62H4c-2.34,0-4.22-2.03-3.98-4.41	C0.23,55.51,2.1,54,4.19,54H5c1.11,0,2-0.9,2-2c0-0.55-0.22-1.05-0.58-1.41C6.06,50.22,5.56,50,5,50c-1.65,0-3-1.35-3-3s1.35-3,3-3	h17V32H5c-2.34,0-4.22-2.03-3.98-4.41C1.23,25.51,3.1,24,5.19,24H8.5c1.93,0,3.5-1.57,3.5-3.5S10.43,17,8.5,17h-2	c-2.4,0-4.36-1.87-4.49-4.24C2,12.67,2,12.59,2,12.5c0-1.24,0.5-2.37,1.32-3.18C4.13,8.5,5.26,8,6.5,8h13.23	c0-0.01,0.01-0.01,0.01-0.02C20.46,7.86,21,7.25,21,6.5C21,5.67,20.33,5,19.5,5h-4c-1.47,0-2.64-1.26-2.49-2.76	C13.14,0.94,14.34,0,15.64,0H48.5c1.47,0,2.64,1.26,2.49,2.76C50.86,4.06,49.66,5,48.36,5H45.5C44.67,5,44,5.67,44,6.5	S44.67,8,45.5,8h14c1.47,0,2.64,1.26,2.49,2.76c-0.13,1.3-1.33,2.24-2.63,2.24H59c-1.1,0-2,0.9-2,2s0.9,2,2,2h0.81	c2.09,0,3.96,1.51,4.17,3.59C64.22,22.97,62.33,25,60,25H42v7h17c1.65,0,3,1.35,3,3s-1.35,3-3,3h-9c-1.38,0-2.5,1.12-2.5,2.5	S48.62,43,50,43h10.5c1.92,0,3.5,1.58,3.5,3.5S62.42,50,60.5,50H59c-1.1,0-2,0.9-2,2s0.9,2,2,2C61.33,54,63.22,56.03,62.98,58.41z"/><linearGradient id="b_EoP36c3le5xGIwehhO9b" x1="32" x2="32" y1="-49.095" y2="60.716" gradientTransform="matrix(1 0 0 -1 0 66)" gradientUnits="userSpaceOnUse"><stop offset=".307" stop-color="#feaa53"/><stop offset=".482" stop-color="#ffd049"/><stop offset=".615" stop-color="#ffde45"/><stop offset=".83" stop-color="#ffed41"/><stop offset=".997" stop-color="#fff33f"/></linearGradient><path fill="url(#b_EoP36c3le5xGIwehhO9b)" d="M45,56H19c-5.5,0-10-4.5-10-10V20c0-5.5,4.5-10,10-10h26c5.5,0,10,4.5,10,10v26	C55,51.5,50.5,56,45,56z"/><path fill="#fff" d="M49.95,41.68c-0.13-0.37-0.45-0.63-0.83-0.67c-0.256-0.037-5.998,0.202-7.183-5.278	c-0.219-1.014,0.371-2.169,1.397-2.326C46,33,46.46,30.69,46,30s-1-1-2.33-0.75L41.83,30l0.27-3.17C42.58,21,37.98,16,32.13,16H32	h-0.13c-5.85,0-10.45,5-9.97,10.83L22.17,30l-1.84-0.75C19,29,18.46,29.31,18,30s0,3,2.727,3.424	c0.991,0.154,1.553,1.266,1.348,2.248c-1.156,5.541-6.939,5.301-7.195,5.338c-0.38,0.04-0.7,0.3-0.83,0.67	c-0.12,0.36-0.03,0.76,0.24,1.03c0.1,0.1,1.82,1.72,5.08,1.94c-0.1,0.53-0.26,0.9-0.26,0.9c-0.03,0.06-0.04,0.11-0.06,0.17	c-0.01,0.021-0.02,0.04-0.02,0.07C19,45.9,19,46.02,19.01,46.13c0.01,0.01,0,0.02,0,0.03c0.01,0.02,0.02,0.04,0.02,0.05	c0.02,0.1,0.06,0.18,0.1,0.27c0.02,0.02,0.03,0.05,0.05,0.08c0,0.01,0.01,0.02,0.02,0.03c0.01,0.03,0.04,0.04,0.06,0.06	c0.07,0.08,0.15,0.15,0.25,0.21c0.04,0.02,0.08,0.03,0.12,0.05c0.09,0.04,0.18,0.06,0.28,0.07c0.03,0,0.06,0.02,0.09,0.02	c0.05,0,0.11,0,0.16-0.01l2.65-0.45c1.677-0.276,3.139,0.578,4.387,1.723C28,49,29,50,32,50s4-1,4.803-1.737	c1.248-1.145,2.71-1.999,4.387-1.723l2.65,0.45C43.89,47,43.95,47,44,47c0.03,0,0.06-0.02,0.09-0.02c0.1-0.01,0.19-0.03,0.28-0.07	c0.04-0.02,0.08-0.03,0.12-0.05c0.1-0.06,0.18-0.13,0.25-0.21c0.02-0.02,0.05-0.03,0.06-0.06c0.01-0.01,0.02-0.02,0.02-0.03	c0.02-0.03,0.03-0.06,0.05-0.08c0.04-0.09,0.08-0.17,0.1-0.27c0-0.01,0.01-0.03,0.02-0.05c0-0.01-0.01-0.02,0-0.03	C45,46.02,45,45.9,44.97,45.79c0-0.03-0.01-0.05-0.02-0.07c-0.02-0.06-0.03-0.11-0.06-0.17c0,0-0.16-0.37-0.26-0.9	c3.26-0.22,4.98-1.84,5.08-1.94C49.98,42.44,50.07,42.04,49.95,41.68z"/><linearGradient id="b_EoP36c3le5xGIwehhO9c" x1="31.999" x2="31.999" y1="55.691" y2="14.717" gradientTransform="matrix(1 0 0 -1 0 66)" gradientUnits="userSpaceOnUse"><stop offset="0" stop-color="#a4a4a4"/><stop offset=".63" stop-color="#7f7f7f"/><stop offset="1" stop-color="#6f6f6f"/><stop offset="1" stop-color="#6f6f6f"/></linearGradient><path fill="url(#b_EoP36c3le5xGIwehhO9c)" d="M32,51c-3.307,0-4.574-1.167-5.413-1.939c-1.363-1.251-2.487-1.716-3.614-1.534l-2.645,0.45	c-0.147,0.028-0.373,0.037-0.584-0.009c-0.189-0.025-0.36-0.073-0.521-0.145c-0.062-0.024-0.115-0.046-0.169-0.074	c-0.215-0.126-0.365-0.245-0.496-0.385c-0.029-0.027-0.058-0.057-0.085-0.088c-0.075-0.079-0.132-0.16-0.174-0.239	c-0.031-0.048-0.059-0.098-0.083-0.149c-0.048-0.106-0.102-0.227-0.142-0.375c-0.041-0.11-0.063-0.227-0.064-0.343	c-0.017-0.236,0.002-0.447,0.056-0.645l0,0c0.002-0.009,0.005-0.019,0.007-0.027c-2.907-0.521-4.421-2.012-4.493-2.083	c-0.537-0.538-0.722-1.324-0.48-2.051c0.264-0.747,0.918-1.27,1.674-1.349c-0.004,0,0.078-0.008,0.204-0.011	c1.943-0.056,5.322-0.719,6.118-4.537c0.057-0.272-0.003-0.58-0.158-0.803c-0.101-0.146-0.223-0.23-0.364-0.252	c-1.616-0.252-2.868-1.137-3.435-2.428c-0.402-0.915-0.391-1.912,0.028-2.54c0.751-1.124,1.755-1.481,3.347-1.178	c0.066,0.012,0.131,0.031,0.193,0.057l0.327,0.133l-0.131-1.542c-0.252-3.062,0.796-6.109,2.875-8.366	C25.855,16.294,28.805,15,31.87,15h0.26c3.065,0,6.016,1.294,8.093,3.549c2.078,2.257,3.126,5.306,2.874,8.363l-0.132,1.546	l0.327-0.134c0.063-0.025,0.127-0.045,0.193-0.057c1.596-0.301,2.596,0.052,3.347,1.178c0.422,0.633,0.432,1.638,0.024,2.56	c-0.563,1.278-1.793,2.149-3.372,2.39c-0.195,0.03-0.328,0.169-0.404,0.279c-0.163,0.238-0.227,0.563-0.165,0.847	c0.815,3.773,4.176,4.429,6.105,4.484c0.127,0.003,0.21,0.011,0.243,0.016c0.718,0.074,1.373,0.598,1.63,1.327	c0.002,0.005,0.004,0.011,0.005,0.016c0.243,0.728,0.059,1.515-0.481,2.054c-0.067,0.068-1.574,1.559-4.484,2.08	c0.009,0.035,0.018,0.077,0.024,0.124c0.036,0.169,0.047,0.35,0.033,0.548c-0.001,0.119-0.023,0.237-0.065,0.348	c-0.04,0.146-0.092,0.261-0.128,0.342c-0.022,0.049-0.052,0.103-0.084,0.154l-0.045,0.078l-0.001-0.001	c-0.038,0.064-0.082,0.124-0.131,0.177c-0.03,0.035-0.062,0.068-0.094,0.099c-0.114,0.125-0.266,0.249-0.438,0.353	c-0.05,0.029-0.165,0.082-0.219,0.103c-0.171,0.076-0.34,0.122-0.532,0.147c-0.213,0.049-0.424,0.04-0.605,0.004l-2.625-0.445	C39.91,47.34,38.777,47.81,37.479,49C36.574,49.833,35.308,51,32,51z M23.455,45.487c1.477,0,2.928,0.672,4.417,2.038	C28.66,48.251,29.474,49,32,49s3.34-0.75,4.058-1.411c1.832-1.68,3.539-2.328,5.296-2.035l2.588,0.439	c0.014-0.002,0.027-0.004,0.04-0.006c-0.003-0.017-0.005-0.033-0.007-0.05l-0.004,0.001c-0.021-0.042-0.206-0.482-0.323-1.102	c-0.054-0.281,0.017-0.571,0.191-0.798s0.438-0.367,0.724-0.387c2.874-0.194,4.386-1.598,4.44-1.649C49.001,42,49,41.999,49,41.999	c-4.316-0.117-7.233-2.326-8.04-6.056c-0.177-0.817,0-1.717,0.473-2.403c0.425-0.617,1.047-1.016,1.751-1.122	c1.021-0.156,1.509-0.641,1.739-1.021c0.256-0.422,0.25-0.801,0.219-0.891c-0.178-0.259-0.304-0.45-1.191-0.291l-1.742,0.71	c-0.323,0.131-0.689,0.085-0.971-0.12c-0.28-0.206-0.434-0.544-0.403-0.891l0.27-3.17c0.209-2.537-0.627-4.968-2.353-6.842	C37.026,18.031,34.675,17,32.13,17h-0.26c-2.545,0-4.896,1.031-6.621,2.903c-1.726,1.874-2.562,4.306-2.353,6.845l0.27,3.167	c0.029,0.347-0.124,0.685-0.404,0.891c-0.282,0.205-0.649,0.251-0.97,0.12l-1.743-0.71c-0.89-0.157-1.015,0.034-1.217,0.339	c-0.004,0.04-0.008,0.412,0.243,0.828c0.236,0.389,0.74,0.888,1.806,1.054c0.684,0.105,1.288,0.493,1.702,1.09	c0.463,0.669,0.639,1.547,0.471,2.35c-0.787,3.771-3.709,6.005-8.019,6.128c-0.026,0.011,1.489,1.451,4.402,1.648	c0.286,0.02,0.549,0.16,0.724,0.387c0.175,0.226,0.245,0.517,0.191,0.797c-0.117,0.621-0.304,1.063-0.325,1.111	c-0.003,0.009-0.008,0.022-0.014,0.038c0.012,0.01,0.024,0.004,0.036,0.006l2.593-0.438C22.915,45.51,23.186,45.487,23.455,45.487z M44.194,46.414l0.232,0.473L44.194,46.414z M43.833,46.402c-0.008,0.05-0.013,0.103-0.013,0.158	C43.82,46.508,43.824,46.454,43.833,46.402L43.833,46.402z M44.616,45.79h0.014l0.304-0.124l-0.346,0.098L44.616,45.79z"/></svg>