<svg xmlns="http://www.w3.org/2000/svg"  viewBox="0 0 64 64" width="512px" height="512px"><radialGradient id="7KpVBeKmzEr1BRQPBQ9pxa" cx="32" cy="32.5" r="45.237" gradientTransform="matrix(1 0 0 -1 0 66)" gradientUnits="userSpaceOnUse"><stop offset="0" stop-color="#9ceeff"/><stop offset=".642" stop-color="#c5f5ff"/><stop offset="1" stop-color="#dcf9ff"/></radialGradient><path fill="url(#7KpVBeKmzEr1BRQPBQ9pxa)" d="M63.925,51.879C63.651,50.743,62.549,50,61.38,50H59.5c-0.828,0-1.5-0.671-1.5-1.5	s0.672-1.5,1.5-1.5h0.411c1.307,0,2.547-0.786,2.938-2.034C63.496,42.899,61.97,41,60,41h-8v-8h8.329	c1.717,0,3.308-1.158,3.612-2.848C64.341,27.932,62.646,26,60.5,26h-1.393c-0.996,0-1.92-0.681-2.08-1.664	C56.823,23.083,57.785,22,59,22h0.911c1.306,0,2.546-0.786,2.937-2.032C63.498,17.9,61.971,16,60,16h-0.631	c-0.822,0-1.631-0.383-2.053-1.088c-0.869-1.453,0.182-2.951,1.566-2.911c1.386,0.041,2.754-0.478,3.454-1.675	C64.161,7.204,61.954,4,59,4H5.146C3.45,4,1.557,5.299,1.136,6.943c-0.674,2.628,1.258,4.992,3.761,5.056	c0.809,0.021,1.61,0.397,1.924,1.143C7.435,14.6,6.381,16,5,16H3.697c-1.728,0-3.483,1.379-3.675,3.097	c-0.233,2.085,1.367,3.854,3.392,3.902c1.175,0.028,2.269,0.783,2.522,1.931C6.297,26.56,5.067,28,3.5,28H3.089	c-1.306,0-2.546,0.786-2.938,2.032C-0.498,32.099,1.029,34,3,34h9v7H4.111c-1.451,0-2.781,0.981-3.054,2.406	C0.689,45.323,2.149,47,4,47h0.5C5.328,47,6,47.671,6,48.5S5.328,50,4.5,50H2.642c-1.308,0-2.499,0.941-2.629,2.242	C-0.137,53.739,1.034,55,2.5,55h7c0.828,0,1.5,0.672,1.5,1.5l0,0c0,0.828-0.672,1.5-1.5,1.5H8.642c-1.308,0-2.499,0.941-2.629,2.242	C5.863,61.739,7.034,63,8.5,63h46.858c1.308,0,2.499-0.941,2.629-2.242C58.137,59.261,56.966,58,55.5,58h-1	c-0.828,0-1.5-0.672-1.5-1.5l0,0c0-0.828,0.672-1.5,1.5-1.5h7C63.083,55,64.323,53.528,63.925,51.879z"/><linearGradient id="7KpVBeKmzEr1BRQPBQ9pxb" x1="32" x2="32" y1="105.362" y2="-8.676" gradientTransform="matrix(1 0 0 -1 0 66)" gradientUnits="userSpaceOnUse"><stop offset="0" stop-color="#ff634d"/><stop offset=".204" stop-color="#fe6464"/><stop offset=".521" stop-color="#fc6581"/><stop offset=".794" stop-color="#fa6694"/><stop offset=".989" stop-color="#fa669a"/><stop offset="1" stop-color="#fa669a"/></linearGradient><path fill="url(#7KpVBeKmzEr1BRQPBQ9pxb)" d="M55,19v26c0,5.523-4.477,10-10,10H19c-5.523,0-10-4.477-10-10V19c0-5.523,4.477-10,10-10h26	C50.523,9,55,13.477,55,19z"/><path fill="#f95679" d="M55,41v4c0,5.523-4.477,10-10,10h-7.356c-1.308,0-2.5-0.94-2.631-2.241	C34.862,51.263,36.035,50,37.5,50H46c1.105,0,1-0.895,1-2l0,0l-1-2h-3l1-5H55z"/><linearGradient id="7KpVBeKmzEr1BRQPBQ9pxc" x1="16.5" x2="16.5" y1="-12.245" y2="54.215" gradientTransform="matrix(1 0 0 -1 0 66)" gradientUnits="userSpaceOnUse"><stop offset="0" stop-color="#ff7d5c"/><stop offset=".214" stop-color="#ff7e72"/><stop offset=".524" stop-color="#fc7e8c"/><stop offset=".793" stop-color="#fa7f9c"/><stop offset=".931" stop-color="#fa7fa2"/><stop offset="1" stop-color="#fa7fa2"/></linearGradient><path fill="url(#7KpVBeKmzEr1BRQPBQ9pxc)" d="M24,12c0,1.66-1.34,3-3,3h-6.5c-0.83,0-1.5,0.67-1.5,1.5s0.67,1.5,1.5,1.5H20v5h-5.5	c-0.69,0-1.32,0.28-1.77,0.73C12.28,24.18,12,24.81,12,25.5c0,1.38,1.12,2.5,2.5,2.5H20v6H9V19c0-5.52,4.48-10,10-10h2	C22.66,9,24,10.34,24,12z"/><path fill="#fff" d="M48.738,48.672c-1.218-1.838-2.921-3.315-4.204-4.271l0.914-0.729	c0.306-0.244,0.504-0.598,0.553-0.985l1-8c0.008-0.063,0.012-0.124,0.012-0.187v-20c0-0.828-0.672-1.5-1.5-1.5h-27	c-0.828,0-1.5,0.672-1.5,1.5v20c0,0.063,0.004,0.124,0.012,0.187l1,8c0.048,0.387,0.246,0.74,0.551,0.984l0.902,0.722	c-1.284,0.955-2.994,2.435-4.216,4.279c-0.457,0.69-0.268,1.621,0.423,2.079C15.939,50.919,16.227,51,16.512,51	c0.485,0,0.963-0.236,1.252-0.672c1.612-2.434,4.432-4.19,4.914-4.479l1.832-0.734l1.941,0.777c0.359,0.143,0.758,0.143,1.115,0	l1.938-0.776l1.939,0.776c0.357,0.143,0.757,0.143,1.114,0l1.943-0.777l1.944,0.777c0.357,0.143,0.756,0.143,1.113,0l1.945-0.777	l1.785,0.713c0.388,0.23,3.301,2.014,4.948,4.5C46.525,50.764,47.002,51,47.488,51c0.285,0,0.572-0.081,0.827-0.249	C49.006,50.293,49.195,49.362,48.738,48.672z M38.945,42.107l-1.944,0.777l-1.944-0.777C34.878,42.036,34.689,42,34.5,42	s-0.378,0.036-0.557,0.107L32,42.885l-1.939-0.777c-0.357-0.143-0.758-0.143-1.115,0l-1.938,0.776l-1.941-0.776	c-0.359-0.143-0.758-0.143-1.115,0l-1.686,0.675l-1.34-1.072l-0.913-7.304V16h24v18.406L43.1,41.709l-1.346,1.074l-1.696-0.677	C39.701,41.964,39.302,41.965,38.945,42.107z"/><ellipse cx="25.007" cy="31" fill="#fff" rx="2.007" ry="2"/><ellipse cx="39.007" cy="31" fill="#fff" rx="1.993" ry="2"/><path fill="#fff" d="M36.733,36.091l-0.035,0.005c-0.923,0.123-1.703,0.248-2.471,0.318	c-0.763,0.077-1.494,0.112-2.227,0.116c-0.733,0-1.465-0.036-2.228-0.113c-0.77-0.068-1.55-0.196-2.47-0.321l-0.035-0.005	c-0.123-0.017-0.253,0.001-0.367,0.058c-0.257,0.127-0.339,0.402-0.185,0.613C27.78,38.221,29.922,38.998,32,39	s4.224-0.775,5.286-2.238c0.063-0.087,0.091-0.193,0.07-0.301C37.308,36.218,37.029,36.052,36.733,36.091z"/></svg>