<svg xmlns="http://www.w3.org/2000/svg"  viewBox="0 0 64 64" width="512px" height="512px"><radialGradient id="uZlLpfnN28SAcbr70yOmxa" cx="32.383" cy="1165.426" r="30.516" gradientTransform="translate(0 -1134)" gradientUnits="userSpaceOnUse"><stop offset="0" stop-color="#afeeff"/><stop offset=".193" stop-color="#bbf1ff"/><stop offset=".703" stop-color="#d7f8ff"/><stop offset="1" stop-color="#e1faff"/></radialGradient><path fill="url(#uZlLpfnN28SAcbr70yOmxa)" d="M58.883,19.926h1.5c2.168,0,3.892-1.998,3.422-4.243c-0.342-1.635-1.866-2.757-3.537-2.757	h-7.385c-1.105,0-2-0.895-2-2s0.895-2,2-2h3.385c1.67,0,3.195-1.122,3.537-2.757c0.47-2.245-1.254-4.243-3.422-4.243H33.889h-1.506	h-24c-1.925,0-3.5,1.575-3.5,3.5s1.575,3.5,3.5,3.5h1.5c1.105,0,2,0.895,2,2s-0.895,2-2,2H4.498c-1.67,0-3.195,1.122-3.537,2.757	c-0.47,2.245,1.254,4.243,3.422,4.243h13.5v12H4.498c-1.67,0-3.195,1.122-3.537,2.757c-0.47,2.245,1.254,4.243,3.422,4.243h0.5	c1.105,0,2,0.895,2,2s-0.895,2-2,2h-0.5c-2.168,0-3.892,1.998-3.422,4.243c0.342,1.635,1.867,2.757,3.537,2.757h5.385	c1.105,0,2,0.895,2,2s-0.895,2-2,2H8.498c-1.67,0-3.195,1.122-3.537,2.757c-0.47,2.245,1.254,4.243,3.422,4.243h22.494h1.506h23	c1.925,0,3.5-1.575,3.5-3.5s-1.575-3.5-3.5-3.5h-0.5c-1.105,0-2-0.895-2-2s0.895-2,2-2h4.385c1.67,0,3.195-1.122,3.537-2.757	c0.47-2.245-1.254-4.243-3.422-4.243h-12.5v-12h12.385c1.67,0,3.195-1.122,3.537-2.757c0.47-2.245-1.254-4.243-3.422-4.243h-0.5	c-1.105,0-2-0.895-2-2S57.778,19.926,58.883,19.926z"/><linearGradient id="uZlLpfnN28SAcbr70yOmxb" x1="31.941" x2="31.941" y1="12.575" y2="103.443" gradientTransform="matrix(1 0 0 -1 0 66)" gradientUnits="userSpaceOnUse"><stop offset="0" stop-color="#ff5840"/><stop offset=".007" stop-color="#ff5840"/><stop offset=".989" stop-color="#fa528c"/><stop offset="1" stop-color="#fa528c"/></linearGradient><path fill="url(#uZlLpfnN28SAcbr70yOmxb)" d="M55.902,23.882c5.317,19.276-11.831,36.464-31.062,31.135	c-8.155-2.26-14.605-8.726-16.86-16.899C2.664,18.841,19.811,1.654,39.042,6.983C47.197,9.243,53.648,15.709,55.902,23.882z"/><path fill="#fff" d="M47,33.04c-0.008,2.478-0.55,4.934-1.705,7.131C42.992,44.55,38,48,32,48	c-4.956,0-8.616-1.914-11.681-5.801c-3.43-4.35-4.413-10.865-1.947-15.902c0.584-1.192,1.687-2.892,3.004-4.124	c0.629-0.588,1.656-0.171,1.69,0.689C23.136,24.661,23.315,28,24,28c1.898,0,9.196-2.8,9.925-12.379	c0.057-0.75,0.876-1.181,1.52-0.793c4.06,2.446,7.59,5.848,9.666,10.087C46.341,27.427,47.009,30.248,47,33.04z"/></svg>